<?xml version="1.0" standalone="no"?><!DOCTYPE svg PUBLIC "-//W3C//DTD SVG 1.1//EN" "http://www.w3.org/Graphics/SVG/1.1/DTD/svg11.dtd"><svg t="1775899828510" class="icon" viewBox="0 0 1024 1024" version="1.1" xmlns="http://www.w3.org/2000/svg" p-id="1958" xmlns:xlink="http://www.w3.org/1999/xlink" width="200" height="200"><path d="M477.013333 141.568a42.666667 42.666667 0 0 1 69.888 0L738.133333 414.549333a42.666667 42.666667 0 0 0 46.293334 16.64l174.208-48.170666a42.666667 42.666667 0 0 1 50.986666 56.96l-186.026666 465.749333a42.666667 42.666667 0 0 1-39.594667 26.837333H239.914667a42.666667 42.666667 0 0 1-39.68-26.88L14.250667 440.021333A42.666667 42.666667 0 0 1 65.28 383.018667l174.208 48.213333a42.666667 42.666667 0 0 0 46.293333-16.64l191.274667-273.066667z" fill="#babbb4" p-id="1959"></path></svg>